<svg width="138" height="119" viewBox="0 0 138 119" fill="none" xmlns="http://www.w3.org/2000/svg">
<path d="M69.6099 118.243C106.06 118.243 135.608 116.517 135.608 114.389C135.608 112.261 106.06 110.536 69.6099 110.536C33.16 110.536 3.61157 112.261 3.61157 114.389C3.61157 116.517 33.16 118.243 69.6099 118.243Z" fill="#F5F5F5"/>
<path d="M130.999 96.4236L132.729 68.8996C132.881 66.4789 132.535 64.0528 131.713 61.7709C130.892 59.4889 129.611 57.3995 127.95 55.6316C126.29 53.8636 124.285 52.4547 122.059 51.4916C119.833 50.5284 117.433 50.0316 115.008 50.0317V50.0317C110.473 50.0324 106.11 51.7684 102.814 54.8839C99.518 57.9993 97.5393 62.2578 97.2837 66.7858L95.4796 98.9323H128.327C129.008 98.9319 129.663 98.6724 130.16 98.2064C130.656 97.7405 130.956 97.103 130.999 96.4236Z" fill="#407BFF"/>
<path opacity="0.1" d="M131.061 95.4331L132.729 68.9064C132.881 66.4858 132.535 64.0596 131.713 61.7777C130.892 59.4957 129.611 57.4063 127.95 55.6384C126.29 53.8705 124.285 52.4615 122.059 51.4984C119.833 50.5353 117.433 50.0385 115.008 50.0386V50.0386C110.473 50.0392 106.11 51.7753 102.814 54.8907C99.518 58.0061 97.5393 62.2646 97.2837 66.7926L95.4796 98.9323H127.337C128.285 98.9292 129.197 98.5662 129.888 97.9167C130.58 97.2672 130.999 96.3795 131.061 95.4331V95.4331Z" fill="black"/>
<path d="M125.669 98.9323L127.555 68.8996C127.706 66.4791 127.36 64.0531 126.538 61.7714C125.716 59.4897 124.436 57.4005 122.775 55.6326C121.115 53.8648 119.11 52.4558 116.884 51.4925C114.659 50.5293 112.259 50.0321 109.834 50.0317V50.0317C105.298 50.0315 100.935 51.7674 97.639 54.8829C94.343 57.9985 92.3646 62.2575 92.1098 66.7858L90.2955 98.9323H125.669Z" fill="#407BFF"/>
<path d="M126.234 104.103H126.687C126.809 104.096 126.924 104.046 127.013 103.962C127.102 103.878 127.157 103.765 127.17 103.643L127.851 98.9358H125.094L125.774 103.643C125.787 103.761 125.839 103.871 125.923 103.954C126.007 104.038 126.116 104.09 126.234 104.103Z" fill="#407BFF"/>
<path opacity="0.7" d="M126.234 104.103H126.687C126.809 104.096 126.924 104.046 127.013 103.962C127.102 103.878 127.157 103.765 127.17 103.643L127.851 98.9358H125.094L125.774 103.643C125.787 103.761 125.839 103.871 125.923 103.954C126.007 104.038 126.116 104.09 126.234 104.103Z" fill="white"/>
<path d="M81.7619 104.103H82.1703C82.2862 104.091 82.394 104.038 82.4745 103.954C82.5549 103.87 82.6028 103.76 82.6094 103.643L83.2255 98.9358H80.7203L81.3296 103.643C81.336 103.759 81.3829 103.868 81.462 103.952C81.541 104.036 81.6472 104.089 81.7619 104.103V104.103Z" fill="#407BFF"/>
<path opacity="0.5" d="M81.7619 104.103H82.1703C82.2862 104.091 82.394 104.038 82.4745 103.954C82.5549 103.87 82.6028 103.76 82.6094 103.643L83.2255 98.9358H80.7203L81.3296 103.643C81.336 103.759 81.3829 103.868 81.462 103.952C81.541 104.036 81.6472 104.089 81.7619 104.103V104.103Z" fill="white"/>
<path d="M94.5639 104.103H94.9758C95.0916 104.091 95.1995 104.038 95.2799 103.954C95.3604 103.87 95.4082 103.76 95.4149 103.643L96.0208 98.9358H93.5189L94.118 103.643C94.1249 103.761 94.1737 103.872 94.2556 103.956C94.3374 104.04 94.4468 104.093 94.5639 104.103V104.103Z" fill="#407BFF"/>
<path opacity="0.7" d="M94.5639 104.103H94.9758C95.0916 104.091 95.1995 104.038 95.2799 103.954C95.3604 103.87 95.4082 103.76 95.4149 103.643L96.0208 98.9358H93.5189L94.118 103.643C94.1249 103.761 94.1737 103.872 94.2556 103.956C94.3374 104.04 94.4468 104.093 94.5639 104.103V104.103Z" fill="white"/>
<path d="M112.448 104.103H112.901C113.023 104.096 113.139 104.046 113.228 103.962C113.317 103.878 113.373 103.765 113.388 103.643L114.068 98.9358H111.308L111.989 103.643C112.001 103.761 112.053 103.871 112.137 103.955C112.22 104.039 112.33 104.091 112.448 104.103V104.103Z" fill="#407BFF"/>
<path opacity="0.5" d="M112.448 104.103H112.901C113.023 104.096 113.139 104.046 113.228 103.962C113.317 103.878 113.373 103.765 113.388 103.643L114.068 98.9358H111.308L111.989 103.643C112.001 103.761 112.053 103.871 112.137 103.955C112.22 104.039 112.33 104.091 112.448 104.103V104.103Z" fill="white"/>
<path d="M97.4607 87.6042H85.3564L84.5565 75.9356L84.3829 73.4303L84.3046 72.2764C84.2827 71.9736 84.2429 71.6724 84.1854 71.3744C84.1854 71.3097 84.1582 71.2382 84.1446 71.1735C84.1373 71.1247 84.1248 71.0767 84.1071 71.0306C83.781 69.8412 83.1456 68.7596 82.2656 67.8956C81.2503 66.8926 79.9079 66.2884 78.4839 66.1936H89.87C89.9925 66.1936 90.1184 66.1936 90.2444 66.1936C91.7881 66.2004 93.2677 66.8113 94.3665 67.8956C95.2475 68.7594 95.884 69.841 96.2114 71.0306C96.2291 71.0767 96.2416 71.1247 96.2489 71.1735C96.3288 71.5368 96.3823 71.9054 96.4089 72.2764L96.4871 73.4303L97.4607 87.6042Z" fill="#407BFF"/>
<path opacity="0.1" d="M97.4607 87.6042H85.3564L84.5565 75.9356L84.3829 73.4303L84.3046 72.2764C84.2827 71.9736 84.2429 71.6724 84.1854 71.3744C84.1854 71.3097 84.1582 71.2382 84.1446 71.1735C84.1373 71.1247 84.1248 71.0767 84.1071 71.0306C83.781 69.8412 83.1456 68.7596 82.2656 67.8956C81.2503 66.8926 79.9079 66.2884 78.4839 66.1936H89.87C89.9925 66.1936 90.1184 66.1936 90.2444 66.1936C91.7881 66.2004 93.2677 66.8113 94.3665 67.8956C95.2475 68.7594 95.884 69.841 96.2114 71.0306C96.2291 71.0767 96.2416 71.1247 96.2489 71.1735C96.3288 71.5368 96.3823 71.9054 96.4089 72.2764L96.4871 73.4303L97.4607 87.6042Z" fill="black"/>
<g opacity="0.1">
<path opacity="0.1" d="M107.053 81.375H111.914C113.098 81.375 114.055 82.1239 114.055 83.0463V85.9192C114.055 86.8451 113.098 87.5905 111.914 87.5905H107.053V81.375Z" fill="black"/>
</g>
<path d="M87.2047 87.5906H108.615C109.634 87.5906 110.46 86.7646 110.46 85.7457V83.2166C110.46 82.1976 109.634 81.3716 108.615 81.3716H87.2047C86.1858 81.3716 85.3598 82.1976 85.3598 83.2166V85.7457C85.3598 86.7646 86.1858 87.5906 87.2047 87.5906Z" fill="#407BFF"/>
<path d="M137.688 73.0592C137.691 74.6867 137.118 76.2627 136.071 77.5086C135.024 78.7545 133.57 79.5899 131.966 79.867L130.724 96.4542C130.615 97.8635 129.59 98.9425 128.365 98.9425H115.015C116.24 98.9425 117.261 97.8635 117.37 96.4542L118.051 87.6041L118.626 79.8568C119.675 79.6766 120.668 79.255 121.527 78.6253C122.385 77.9955 123.085 77.1749 123.572 76.2282C123.639 76.108 123.699 75.9841 123.752 75.8572C124.146 74.977 124.348 74.0233 124.345 73.0592C124.344 72.587 124.296 72.116 124.202 71.6534C124.164 71.4696 124.117 71.2858 124.066 71.1053C123.823 70.2946 123.436 69.5346 122.922 68.8622V68.8622C122.278 68.0232 121.45 67.3433 120.501 66.8747C119.553 66.4062 118.51 66.1615 117.452 66.1595H130.802C131.872 66.1556 132.928 66.4052 133.883 66.8879C134.816 67.3526 135.631 68.0243 136.265 68.852V68.852C137.192 70.0585 137.692 71.538 137.688 73.0592V73.0592Z" fill="#407BFF"/>
<path opacity="0.1" d="M137.688 73.0592C137.691 74.6867 137.118 76.2627 136.071 77.5086C135.024 78.7545 133.57 79.5899 131.966 79.867L130.724 96.4542C130.615 97.8635 129.59 98.9425 128.365 98.9425H115.015C116.24 98.9425 117.261 97.8635 117.37 96.4542L118.051 87.6041L118.626 79.8568C119.675 79.6766 120.668 79.255 121.527 78.6253C122.385 77.9955 123.085 77.1749 123.572 76.2282C123.639 76.108 123.699 75.9841 123.752 75.8572C124.146 74.977 124.348 74.0233 124.345 73.0592C124.344 72.587 124.296 72.116 124.202 71.6534C124.164 71.4696 124.117 71.2858 124.066 71.1053C123.823 70.2946 123.436 69.5346 122.922 68.8622V68.8622C122.278 68.0232 121.45 67.3433 120.501 66.8747C119.553 66.4062 118.51 66.1615 117.452 66.1595H130.802C131.872 66.1556 132.928 66.4052 133.883 66.8879C134.816 67.3526 135.631 68.0243 136.265 68.852V68.852C137.192 70.0585 137.692 71.538 137.688 73.0592V73.0592Z" fill="black"/>
<path d="M124.348 73.0626C124.348 76.4665 122.105 79.302 119.161 79.8704L118.024 96.4543C117.925 97.8635 117.003 98.9459 115.886 98.9459H80.2335C79.1238 98.9459 78.1911 97.8635 78.0958 96.4543L76.9555 79.8398C74.069 79.2339 71.8871 76.4359 71.8871 73.0728C71.8803 71.6608 72.2809 70.2768 73.041 69.0868C73.616 68.1794 74.408 67.4296 75.3455 66.9049C76.1987 66.4251 77.1612 66.1731 78.1401 66.1731C79.6843 66.1822 81.1641 66.7927 82.2656 67.875C83.1454 68.7378 83.7809 69.8184 84.1071 71.0066C84.1248 71.0551 84.1373 71.1053 84.1446 71.1564C84.2251 71.5184 84.2785 71.8859 84.3046 72.2559L84.3863 73.4098L85.3564 87.6041H110.763L111.815 72.2865C111.965 70.1216 113.02 68.3176 114.484 67.4632C115.409 66.723 116.539 66.2846 117.721 66.2071C117.845 66.1946 117.97 66.1889 118.095 66.1901C119.046 66.1848 119.982 66.4189 120.818 66.8709C120.844 66.8825 120.869 66.8961 120.893 66.9117C121.756 67.391 122.497 68.0632 123.058 68.8758C123.903 70.1082 124.353 71.5684 124.348 73.0626V73.0626Z" fill="#407BFF"/>
<path opacity="0.1" d="M110.174 98.9357H80.2199C79.1102 98.9357 78.1775 97.8532 78.0822 96.444L76.9419 79.8295C74.0554 79.2236 71.8735 76.4256 71.8735 73.0626C71.8667 71.6506 72.2673 70.2666 73.0274 69.0766C73.6024 68.1692 74.3944 67.4193 75.3319 66.8947C76.1851 66.4149 77.1476 66.1628 78.1265 66.1628C79.6707 66.172 81.1505 66.7825 82.252 67.8648C83.1318 68.7276 83.7673 69.8081 84.0935 70.9964C84.1112 71.0449 84.1237 71.0951 84.131 71.1462C84.2115 71.5082 84.2649 71.8757 84.291 72.2456L84.3726 73.3995L85.3564 87.6041H110.763L110.174 98.9357Z" fill="white"/>
<path d="M106.29 51.7679C105.698 52.1083 105.157 52.3908 104.588 52.6801C104.02 52.9694 103.462 53.235 102.887 53.5005C101.743 54.0213 100.585 54.5216 99.3941 54.9539C98.1933 55.4005 96.9709 55.7868 95.7315 56.1113C94.4423 56.4578 93.1259 56.6935 91.7966 56.8159L91.5141 56.8431H91.3813C90.1797 56.7035 89.1143 56.5027 88.0455 56.2644C86.9766 56.0262 85.918 55.7913 84.8696 55.5224C83.8212 55.2535 82.7796 54.9778 81.738 54.6782C80.6964 54.3787 79.6651 54.0689 78.6337 53.7183L79.1068 51.356C81.2479 51.4921 83.3855 51.6964 85.5028 51.9176L88.665 52.2342C89.7066 52.3363 90.772 52.4248 91.7047 52.4589H91.2928C92.3611 52.2685 93.4144 52.0024 94.4448 51.6623C95.5102 51.322 96.5757 50.9339 97.6411 50.4778C98.7065 50.0217 99.7617 49.5519 100.81 49.0515C101.348 48.8065 101.869 48.5478 102.379 48.2925C102.89 48.0372 103.435 47.7649 103.901 47.5232L106.29 51.7679Z" fill="#263238"/>
<path opacity="0.1" d="M106.29 51.7679C105.698 52.1083 105.157 52.3908 104.588 52.6801C104.02 52.9694 103.462 53.235 102.887 53.5005C101.743 54.0213 100.585 54.5216 99.3941 54.9539C98.1933 55.4005 96.9709 55.7868 95.7315 56.1113C94.4423 56.4578 93.1259 56.6935 91.7966 56.8159L91.5141 56.8431H91.3813C90.1797 56.7035 89.1143 56.5027 88.0455 56.2644C86.9766 56.0262 85.918 55.7913 84.8696 55.5224C83.8212 55.2535 82.7796 54.9778 81.738 54.6782C80.6964 54.3787 79.6651 54.0689 78.6337 53.7183L79.1068 51.356C81.2479 51.4921 83.3855 51.6964 85.5028 51.9176L88.665 52.2342C89.7066 52.3363 90.772 52.4248 91.7047 52.4589H91.2928C92.3611 52.2685 93.4144 52.0024 94.4448 51.6623C95.5102 51.322 96.5757 50.9339 97.6411 50.4778C98.7065 50.0217 99.7617 49.5519 100.81 49.0515C101.348 48.8065 101.869 48.5478 102.379 48.2925C102.89 48.0372 103.435 47.7649 103.901 47.5232L106.29 51.7679Z" fill="black"/>
<path d="M78.6745 50.0592C78.1712 49.706 77.6152 49.4349 77.027 49.2559L76.1454 52.6972L78.7868 53.8069L79.0864 53.4393C79.2895 53.1937 79.4404 52.9094 79.53 52.6036C79.6196 52.2978 79.6459 51.977 79.6073 51.6606C79.5688 51.3443 79.4662 51.0392 79.3058 50.7639C79.1454 50.4885 78.9306 50.2487 78.6745 50.0592V50.0592Z" fill="#FFC3BD"/>
<path d="M76.1454 52.697L77.027 49.2557L74.5626 47.9111L73.8206 50.3347L76.1454 52.697Z" fill="#FFC3BD"/>
<path opacity="0.2" d="M98.0019 55.267H98.0972H98.138C99.4383 55.1275 103.261 54.4841 106.025 51.7576C105.613 50.9611 105.048 50.345 104.357 50.2054C102.451 49.8446 100.116 51.2096 98.0019 55.267Z" fill="black"/>
<path d="M100.245 73.0594C103.506 64.2534 101.362 56.1556 101.77 51.6726C101.87 50.5675 102.328 49.5252 103.074 48.7035C103.819 47.8817 104.812 47.3252 105.902 47.1182C108.129 46.6893 110.882 46.2059 113.507 45.8519C114.24 45.7507 114.987 45.8093 115.695 46.0237C116.404 46.2381 117.058 46.6033 117.612 47.0941C118.166 47.5849 118.608 48.1898 118.906 48.8673C119.204 49.5448 119.353 50.2788 119.341 51.0191C119.113 64.2943 114.858 73.0594 114.858 73.0594L107.982 73.0287L100.245 73.0594Z" fill="#407BFF"/>
<path opacity="0.8" d="M100.245 73.0594C103.506 64.2534 101.362 56.1556 101.77 51.6726C101.87 50.5675 102.328 49.5252 103.074 48.7035C103.819 47.8817 104.812 47.3252 105.902 47.1182C108.129 46.6893 110.882 46.2059 113.507 45.8519C114.24 45.7507 114.987 45.8093 115.695 46.0237C116.404 46.2381 117.058 46.6033 117.612 47.0941C118.166 47.5849 118.608 48.1898 118.906 48.8673C119.204 49.5448 119.353 50.2788 119.341 51.0191C119.113 64.2943 114.858 73.0594 114.858 73.0594L107.982 73.0287L100.245 73.0594Z" fill="white"/>
<path d="M74.1575 103.105L73.2861 108.834H76.0535L77.8712 103.105H74.1575Z" fill="#FFC3BD"/>
<path d="M72.9321 107.558L76.6322 107.469C76.6611 107.466 76.6904 107.469 76.7181 107.478C76.7459 107.486 76.7715 107.501 76.7934 107.52C76.8152 107.539 76.8327 107.563 76.8448 107.589C76.8569 107.616 76.8633 107.645 76.8636 107.674V110.397C76.8471 110.548 76.776 110.687 76.6638 110.789C76.5516 110.891 76.406 110.949 76.2543 110.952C74.9676 110.952 74.3549 110.904 72.7279 110.952C70.9956 110.946 69.2653 110.832 67.5471 110.611C66.2298 110.387 66.5872 109.151 67.1829 109.13C69.872 109.032 71.3765 108.47 72.3432 107.769C72.5117 107.637 72.7182 107.563 72.9321 107.558V107.558Z" fill="#263238"/>
<path opacity="0.2" d="M73.8069 105.403L74.1575 103.105H77.8712L76.9793 105.972L73.8069 105.403Z" fill="black"/>
<path d="M98.5431 70.9965C98.5431 70.9965 76.0263 71.2212 75.6757 78.3524C75.1787 88.6049 73.4461 104.222 73.4461 104.222L77.6908 105.39C77.6908 105.39 83.7497 89.8916 83.9846 81.8822C90.3193 80.6228 106.6 81.8822 108.513 77.7226C109.448 75.6056 109.7 73.2499 109.235 70.9829L98.5431 70.9965Z" fill="#407BFF"/>
<path opacity="0.6" d="M98.5431 70.9965C98.5431 70.9965 76.0263 71.2212 75.6757 78.3524C75.1787 88.6049 73.4461 104.222 73.4461 104.222L77.6908 105.39C77.6908 105.39 83.7497 89.8916 83.9846 81.8822C90.3193 80.6228 106.6 81.8822 108.513 77.7226C109.448 75.6056 109.7 73.2499 109.235 70.9829L98.5431 70.9965Z" fill="black"/>
<path d="M93.9683 105.321L95.4694 109.209H98.5057L97.4607 105.121L93.9683 105.321Z" fill="#FFC3BD"/>
<path opacity="0.2" d="M97.7432 106.223L97.1543 103.231L93.3181 103.708L94.3018 106.309L97.7432 106.223Z" fill="black"/>
<path d="M94.6456 107.922H98.5227C98.5854 107.917 98.6474 107.938 98.6952 107.978C98.743 108.019 98.7728 108.077 98.778 108.14L98.9652 111.043C98.9616 111.201 98.8965 111.35 98.7838 111.459C98.6711 111.569 98.5199 111.63 98.3627 111.629C97.0011 111.605 96.368 111.53 94.6627 111.53C93.6177 111.53 91.5004 111.632 90.0538 111.632C88.6071 111.632 88.648 110.271 89.2573 110.165C92.0144 109.614 93.0798 108.855 94.05 108.123C94.2225 107.995 94.4309 107.925 94.6456 107.922V107.922Z" fill="#263238"/>
<path d="M104.599 70.9966C104.599 70.9966 84.1752 72.382 84.679 79.5063C85.227 87.3081 93.4066 105.4 93.4066 105.4H97.5219C97.5219 105.4 94.7988 88.9862 93.5462 81.0347C99.3056 81.0347 112.652 81.9027 114.572 77.7329C115.503 75.6147 115.753 73.2595 115.287 70.9932L104.599 70.9966Z" fill="#407BFF"/>
<path opacity="0.5" d="M104.599 70.9966C104.599 70.9966 84.1752 72.382 84.679 79.5063C85.227 87.3081 93.4066 105.4 93.4066 105.4H97.5219C97.5219 105.4 94.7988 88.9862 93.5462 81.0347C99.3056 81.0347 112.652 81.9027 114.572 77.7329C115.503 75.6147 115.753 73.2595 115.287 70.9932L104.599 70.9966Z" fill="black"/>
<path d="M107.693 42.1347C108.163 43.9524 108.309 46.2194 105.77 47.1555C105.065 48.2788 104.721 49.4634 107.434 49.0413C109.594 48.7621 111.559 47.6506 112.911 45.9437C111.287 44.5209 111.584 40.1571 111.995 37.696L107.693 42.1347Z" fill="#FFC3BD"/>
<path d="M107.393 45.4434C105.062 45.8416 103.145 47.6457 102.117 49.7731C101.089 51.9006 100.841 54.3242 100.861 56.6899C100.882 59.0556 101.15 61.4111 101.086 63.7734C101.014 66.4965 100.357 68.4266 99.4179 70.9931C99.4179 71.6024 100.34 71.9462 101.12 72.1062C102.747 68.5559 103.816 65.1588 103.703 61.2579C103.618 58.4259 103.581 55.199 104.044 52.4078C104.507 49.6166 107.846 45.971 107.686 45.4672L107.393 45.4434Z" fill="#263238"/>
<path opacity="0.3" d="M109.674 43.4691C109.429 43.6506 109.151 43.7809 108.855 43.8523C108.559 43.9236 108.252 43.9346 107.952 43.8844C107.957 43.4423 107.925 43.0004 107.856 42.5637L110.675 40.249C110.736 40.5498 110.776 40.8547 110.794 41.1613C110.824 41.6102 110.737 42.0592 110.54 42.464C110.344 42.8688 110.045 43.2153 109.674 43.4691V43.4691Z" fill="black"/>
<path d="M105.46 31.3853C102.481 33.0702 102.451 37.8323 103.37 40.5758C103.602 41.2957 104.027 41.938 104.599 42.4326C105.171 42.9271 105.869 43.2548 106.614 43.3799C107.36 43.505 108.126 43.4226 108.829 43.1418C109.531 42.861 110.142 42.3925 110.596 41.7876C112.053 39.9461 111.842 38.0876 111.771 34.8879C111.699 31.6882 108.442 29.7037 105.46 31.3853Z" fill="#FFC3BD"/>
<path opacity="0.2" d="M106.42 39.9495C105.46 40.3613 104.408 40.8957 103.438 40.78C103.699 41.4699 104.14 42.077 104.716 42.5382C105.291 42.9994 105.98 43.2977 106.71 43.402C107.441 43.5064 108.185 43.4128 108.867 43.1313C109.549 42.8497 110.142 42.3904 110.586 41.8012C111.788 40.2898 112.159 39.2687 111.818 36.5183C109.953 38.7036 108.472 39.0644 106.42 39.9495Z" fill="black"/>
<path d="M109.299 32.4608C108.99 32.9633 108.853 33.5526 108.907 34.1401C108.962 34.7276 109.206 35.2815 109.602 35.7183C109.871 36.0009 110.201 36.2187 110.46 36.508C110.864 36.962 111.074 37.5557 111.046 38.1623C111.106 37.772 111.301 37.4149 111.596 37.1522C111.891 36.8895 112.268 36.7376 112.663 36.7225C112.259 37.9729 111.855 39.221 111.451 40.4668C112.25 40.0938 112.941 39.5229 113.458 38.8081C113.975 38.0932 114.301 37.2582 114.405 36.3821C114.664 33.9653 111.682 28.788 109.299 32.4608Z" fill="#263238"/>
<path d="M102.349 32.6277C102.121 32.8807 101.958 33.1858 101.876 33.5161C101.836 33.6797 101.847 33.8516 101.908 34.0086C101.969 34.1656 102.076 34.3002 102.216 34.3943C102.474 34.4981 102.759 34.5125 103.026 34.4351L105.749 33.962C107.308 33.6897 108.867 33.4208 110.406 33.0497C111.087 32.8863 111.873 32.6242 112.145 31.9707C113.027 29.8433 109.262 29.5675 108.003 29.6254C105.858 29.7377 103.69 30.9699 102.349 32.6277Z" fill="#263238"/>
<path d="M112.254 36.1779C111.362 36.3787 110.981 37.662 111.005 38.4857C111.005 39.4218 111.686 40.0311 112.475 39.4661C113.062 39.0301 113.461 38.3877 113.592 37.6688C113.752 36.7872 113.149 35.9771 112.254 36.1779Z" fill="#FFC3BD"/>
<path d="M105.953 39.4288C105.818 39.5188 105.665 39.578 105.504 39.6021C105.344 39.6262 105.18 39.6147 105.024 39.5683C105.365 38.799 105.324 38.9726 105.429 37.6655L105.953 39.4288Z" fill="#ED847E"/>
<path d="M107.523 35.1839C107.267 34.898 106.57 34.7891 106.192 34.8435C106.153 34.8485 106.115 34.8385 106.084 34.8157C106.053 34.7929 106.032 34.7589 106.025 34.721C106.02 34.6801 106.03 34.6389 106.054 34.6054C106.078 34.572 106.114 34.5488 106.154 34.5406C106.631 34.4691 107.424 34.6121 107.747 34.9695C107.775 34.9981 107.791 35.0366 107.791 35.0767C107.791 35.1168 107.775 35.1553 107.747 35.1839C107.728 35.2036 107.705 35.2188 107.679 35.2282C107.652 35.2367 107.622 35.237 107.594 35.2292C107.567 35.2213 107.542 35.2056 107.523 35.1839V35.1839Z" fill="#263238"/>
<path d="M103.118 35.8206C103.086 35.7985 103.064 35.7649 103.056 35.7267C103.049 35.6886 103.056 35.6491 103.077 35.6164C103.196 35.4016 103.364 35.2175 103.567 35.0786C103.769 34.9398 104.001 34.85 104.245 34.8164C104.263 34.816 104.282 34.8193 104.299 34.8261C104.316 34.8329 104.332 34.8431 104.346 34.8561C104.359 34.8691 104.369 34.8846 104.377 34.9018C104.384 34.919 104.388 34.9374 104.388 34.956C104.39 34.9973 104.375 35.0378 104.348 35.0689C104.321 35.1 104.283 35.1193 104.241 35.1228C104.049 35.1534 103.867 35.2273 103.708 35.3387C103.549 35.4502 103.417 35.5963 103.322 35.7661C103.31 35.7883 103.292 35.8071 103.271 35.8208C103.249 35.8344 103.225 35.8426 103.2 35.8444C103.17 35.8468 103.141 35.8383 103.118 35.8206Z" fill="#263238"/>
<path d="M105.691 40.8141C106.019 41.2308 106.32 41.6674 106.593 42.1212L106.804 42.0327C107.764 41.6175 108.037 41.0388 108.05 40.5248C108.039 40.1159 107.912 39.7184 107.686 39.3777C107.346 39.9666 106.484 40.4363 106.015 40.6644C105.814 40.7631 105.691 40.8141 105.691 40.8141Z" fill="#2E353A"/>
<path d="M106.008 40.6644L106.147 40.855C106.186 40.9061 106.24 40.943 106.302 40.9596C106.363 40.9763 106.429 40.9718 106.488 40.9469C107.196 40.6065 107.666 40.2661 107.849 39.8815C107.866 39.8452 107.875 39.8057 107.875 39.7657C107.875 39.7258 107.866 39.6863 107.849 39.65C107.804 39.5555 107.752 39.4645 107.693 39.3777C107.335 39.9666 106.478 40.4363 106.008 40.6644Z" fill="white"/>
<path d="M106.798 42.0326C107.758 41.6173 108.03 41.0386 108.043 40.5247C107.679 40.6929 107.355 40.9379 107.094 41.2429C106.914 41.4681 106.81 41.7446 106.798 42.0326Z" fill="#DE5753"/>
<path d="M104.211 36.886C104.044 36.9166 103.952 37.1549 104 37.4102C104.047 37.6655 104.228 37.8493 104.394 37.8153C104.561 37.7812 104.653 37.5497 104.606 37.2945C104.558 37.0392 104.377 36.886 104.211 36.886Z" fill="#263238"/>
<path d="M107.131 36.4162C106.964 36.4469 106.872 36.6817 106.92 36.9404C106.968 37.1991 107.148 37.3795 107.315 37.3455C107.482 37.3115 107.574 37.0766 107.526 36.8213C107.478 36.566 107.298 36.3856 107.131 36.4162Z" fill="#263238"/>
<path opacity="0.9" d="M102.924 38.268L105.072 37.7847L105.109 38.6969L103.111 39.1735L102.924 38.268Z" fill="white"/>
<g opacity="0.8">
<path opacity="0.9" d="M105.725 37.6415L105.981 38.4789L108.738 37.8866L108.574 36.9199L105.725 37.6415Z" fill="white"/>
</g>
<path d="M105.085 38.1216L105.072 37.7846L105.725 37.6416L105.821 37.9582L105.085 38.1216Z" fill="#263238"/>
<path d="M104.303 72.6679C104.303 72.6679 108.18 74.1691 109.068 74.4618C110.089 74.8616 111.164 75.1082 112.257 75.1936C112.812 75.2309 113.368 75.1497 113.888 74.9554C114.409 74.7611 114.882 74.4583 115.277 74.067C116.203 73.0798 116.492 71.5821 116.734 70.1763C117.442 66.0485 118.152 61.9207 118.864 57.7929C119.205 55.7505 120.1 52.687 120.025 51.5331C119.886 49.3886 118.521 46.8561 115.045 45.4639C113.684 44.9227 112.36 45.1235 111.223 46.4851C110.542 47.2952 108.561 49.2491 108.074 52.6904C107.686 55.4476 107.08 59.0183 107.118 61.8197C107.162 65.5027 105.691 70.1456 104.303 72.6679Z" fill="#263238"/>
<path d="M119.835 50.3994C120.229 53.9871 118.245 63.0313 117.864 63.5759C116.237 68.8214 111.767 65.9927 111.121 65.751C109.994 65.3358 108.847 64.5222 107.775 63.981C105.695 62.9598 103.724 62.1157 101.79 60.8324L102.88 58.6811C105 59.4028 111.001 60.9549 111.992 61.1966C112.421 61.3089 114.092 62.1837 114.075 61.0298C114.31 60.6452 114.637 53.1532 115.355 50.5049C115.437 50.2078 115.579 49.9308 115.774 49.6914L115.838 49.6097C116.101 49.2811 116.448 49.0309 116.843 48.8863C117.237 48.7417 117.664 48.7084 118.077 48.7899C118.489 48.8714 118.871 49.0646 119.181 49.3484C119.491 49.6323 119.717 49.9958 119.835 50.3994V50.3994Z" fill="#263238"/>
<path opacity="0.1" d="M119.835 50.3994C120.229 53.9871 118.245 63.0313 117.864 63.5759C116.237 68.8214 111.767 65.9927 111.121 65.751C109.994 65.3358 108.847 64.5222 107.775 63.981C105.695 62.9598 103.724 62.1157 101.79 60.8324L102.88 58.6811C105 59.4028 111.001 60.9549 111.992 61.1966C112.421 61.3089 114.092 62.1837 114.075 61.0298C114.31 60.6452 114.637 53.1532 115.355 50.5049C115.437 50.2078 115.579 49.9308 115.774 49.6914L115.838 49.6097C116.101 49.2811 116.448 49.0309 116.843 48.8863C117.237 48.7417 117.664 48.7084 118.077 48.7899C118.489 48.8714 118.871 49.0646 119.181 49.3484C119.491 49.6323 119.717 49.9958 119.835 50.3994V50.3994Z" fill="white"/>
<path d="M102.029 63.9469H91.9531L90.8026 50.801H100.878L102.029 63.9469Z" fill="#263238"/>
<path opacity="0.5" d="M102.029 63.9469H91.9531L90.8026 50.801H100.878L102.029 63.9469Z" fill="white"/>
<path d="M101.671 63.8822H91.5957L90.4452 50.7363H100.521L101.671 63.8822Z" fill="#407BFF"/>
<path opacity="0.8" d="M101.671 63.8822H91.5957L90.4452 50.7363H100.521L101.671 63.8822Z" fill="white"/>
<path d="M97.6751 51.5567H93.4373L93.2943 49.9126H97.5288L97.6751 51.5567Z" fill="#407BFF"/>
<path d="M93.2943 49.9127L93.7096 49.7698H98.0972L98.1585 50.4676L97.8317 50.8454L97.8113 51.4173L97.6751 51.5568L97.5288 49.9127H93.2943Z" fill="#407BFF"/>
<path opacity="0.5" d="M93.2943 49.9127L93.7096 49.7698H98.0972L98.1585 50.4676L97.8317 50.8454L97.8113 51.4173L97.6751 51.5568L97.5288 49.9127H93.2943Z" fill="black"/>
<path d="M103.683 59.3926L103.911 60.6214C103.366 62.0408 100.245 61.6664 100.245 61.6664V58.0344L102.999 58.6744C103.17 58.7161 103.325 58.8059 103.446 58.9332C103.567 59.0605 103.65 59.22 103.683 59.3926V59.3926Z" fill="#FFC3BD"/>
<path d="M100.238 58.0344L100.252 61.6732L97.4879 61.7413L96.8548 58.5416L100.238 58.0344Z" fill="#FFC3BD"/>
<path d="M110.763 87.6041L111.815 72.2865C111.965 70.1216 113.02 68.3175 114.484 67.4632C115.409 66.723 116.539 66.2846 117.721 66.2071C117.845 66.1946 117.97 66.1889 118.095 66.1901C119.046 66.1848 119.982 66.4189 120.818 66.8709C120.844 66.8825 120.869 66.8961 120.893 66.9117C121.756 67.391 122.497 68.0632 123.058 68.8758C123.907 70.1116 124.358 71.577 124.352 73.0762C124.352 76.4801 122.108 79.3156 119.164 79.884L118.024 96.4542C117.925 97.8635 117.002 98.9459 115.886 98.9459H110.174L110.763 87.6041Z" fill="#407BFF"/>
<path opacity="0.1" d="M110.763 87.6041L111.815 72.2865C111.965 70.1216 113.02 68.3175 114.484 67.4632C115.409 66.723 116.539 66.2846 117.721 66.2071C117.845 66.1946 117.97 66.1889 118.095 66.1901C119.046 66.1848 119.982 66.4189 120.818 66.8709C120.844 66.8825 120.869 66.8961 120.893 66.9117C121.756 67.391 122.497 68.0632 123.058 68.8758C123.907 70.1116 124.358 71.577 124.352 73.0762C124.352 76.4801 122.108 79.3156 119.164 79.884L118.024 96.4542C117.925 97.8635 117.002 98.9459 115.886 98.9459H110.174L110.763 87.6041Z" fill="white"/>
<path d="M58.8195 16.3262V30.5579C58.8195 30.919 58.6761 31.2653 58.4207 31.5207C58.1654 31.776 57.8191 31.9195 57.4579 31.9195H42.8824L37.6744 35.9463C37.5267 36.0579 37.3507 36.126 37.1663 36.143C36.9819 36.1599 36.7965 36.125 36.6308 36.0422C36.4652 35.9594 36.326 35.832 36.2289 35.6743C36.1319 35.5166 36.0808 35.3349 36.0814 35.1498V31.9195H35.2679C34.9068 31.9195 34.5604 31.776 34.3051 31.5207C34.0498 31.2653 33.9063 30.919 33.9063 30.5579V16.3228C33.9072 16.1455 33.9432 15.9701 34.0123 15.8069C34.0814 15.6436 34.1821 15.4956 34.3087 15.3716C34.4353 15.2475 34.5853 15.1497 34.7499 15.084C34.9146 15.0182 35.0906 14.9857 35.2679 14.9884H57.4818C57.8366 14.9884 58.1768 15.1294 58.4277 15.3803C58.6786 15.6311 58.8195 15.9714 58.8195 16.3262V16.3262Z" stroke="#407BFF" stroke-miterlimit="10"/>
<path d="M45.1698 12.9836H42.3889V13.324H45.1698V12.9836Z" fill="#407BFF"/>
<path d="M32.1669 16.9934H31.8265V15.3153C31.8274 14.6957 32.0742 14.1018 32.5127 13.6639C32.9511 13.2261 33.5454 12.9802 34.165 12.9802H40.3703V13.3206H34.1582C33.6292 13.3215 33.122 13.5318 32.7475 13.9056C32.3731 14.2794 32.1619 14.7862 32.1601 15.3153L32.1669 16.9934Z" fill="#407BFF"/>
<path d="M51.8313 25.4147C51.6834 25.4156 51.5369 25.3858 51.401 25.3273C51.2651 25.2688 51.1428 25.1828 51.0418 25.0748C50.9408 24.9667 50.8632 24.8389 50.8139 24.6994C50.7647 24.5599 50.7449 24.4117 50.7557 24.2642V24.2642C51.1199 20.1148 54.4081 19.7336 54.8199 15.0158C54.9391 13.6542 54.4421 13.1436 53.4924 13.1436C52.5427 13.1436 51.9572 13.6576 51.8381 15.0158L51.77 15.7919C51.7393 16.1425 51.5783 16.4689 51.3186 16.7065C51.0589 16.9441 50.7196 17.0756 50.3676 17.0751V17.0751C50.1728 17.0749 49.9801 17.0342 49.8019 16.9556C49.6236 16.877 49.4636 16.7622 49.3321 16.6185C49.2006 16.4748 49.1003 16.3053 49.0377 16.1208C48.9752 15.9364 48.9516 15.7409 48.9686 15.5468L48.9992 15.2064C49.2647 12.1701 50.9088 10.4409 53.8124 10.4409C56.7159 10.4409 58.0536 12.1769 57.7881 15.2064C57.3558 20.125 53.7647 20.8875 53.4584 24.3561C53.46 24.3731 53.46 24.3902 53.4584 24.4072C53.4428 24.6823 53.3228 24.9412 53.1229 25.1309C52.9231 25.3207 52.6583 25.427 52.3827 25.4283L51.8313 25.4147ZM53.3052 28.3012C53.2745 28.6582 53.1109 28.9906 52.8467 29.2327C52.5826 29.4747 52.2372 29.6088 51.8789 29.6083C51.6804 29.6086 51.484 29.5676 51.3022 29.4878C51.1204 29.408 50.9572 29.2912 50.823 29.1448C50.6889 28.9985 50.5866 28.8258 50.5229 28.6378C50.4591 28.4498 50.4352 28.2505 50.4527 28.0527C50.4835 27.6952 50.6476 27.3623 50.9124 27.1202C51.1773 26.878 51.5235 26.7443 51.8824 26.7456C52.0805 26.7463 52.2763 26.7881 52.4574 26.8683C52.6386 26.9484 52.8011 27.0653 52.9348 27.2115C53.0685 27.3577 53.1705 27.53 53.2342 27.7175C53.298 27.9051 53.3221 28.1038 53.3052 28.3012V28.3012Z" fill="#407BFF"/>
<path d="M47.9951 22.0823H40.1661C39.9856 22.0823 39.8124 22.0105 39.6847 21.8829C39.5571 21.7552 39.4854 21.582 39.4854 21.4015C39.4854 21.2209 39.5571 21.0478 39.6847 20.9201C39.8124 20.7924 39.9856 20.7207 40.1661 20.7207H47.9951C48.1757 20.7207 48.3488 20.7924 48.4765 20.9201C48.6042 21.0478 48.6759 21.2209 48.6759 21.4015C48.6759 21.582 48.6042 21.7552 48.4765 21.8829C48.3488 22.0105 48.1757 22.0823 47.9951 22.0823Z" fill="#407BFF"/>
<path d="M46.9127 24.7781H40.1797C39.9992 24.7781 39.826 24.7063 39.6984 24.5787C39.5707 24.451 39.499 24.2778 39.499 24.0973C39.499 23.9167 39.5707 23.7436 39.6984 23.6159C39.826 23.4882 39.9992 23.4165 40.1797 23.4165H46.9127C47.0932 23.4165 47.2664 23.4882 47.3941 23.6159C47.5217 23.7436 47.5935 23.9167 47.5935 24.0973C47.5935 24.2778 47.5217 24.451 47.3941 24.5787C47.2664 24.7063 47.0932 24.7781 46.9127 24.7781Z" fill="#407BFF"/>
<path d="M45.8302 27.4707H40.1797C39.9992 27.4707 39.826 27.399 39.6984 27.2713C39.5707 27.1436 39.499 26.9705 39.499 26.7899C39.499 26.6094 39.5707 26.4362 39.6984 26.3085C39.826 26.1809 39.9992 26.1091 40.1797 26.1091H45.8302C46.0108 26.1091 46.1839 26.1809 46.3116 26.3085C46.4393 26.4362 46.511 26.6094 46.511 26.7899C46.511 26.9705 46.4393 27.1436 46.3116 27.2713C46.1839 27.399 46.0108 27.4707 45.8302 27.4707Z" fill="#407BFF"/>
<path d="M29.8114 83.0125H24.8383C23.6265 83.0125 22.6462 83.7783 22.6462 84.7144V87.6554C22.6462 88.6017 23.6265 89.3573 24.8383 89.3573H29.8114V83.0125Z" fill="#407BFF"/>
<path d="M6.69887 96.8628L4.96969 69.3388C4.81763 66.9186 5.16306 64.4929 5.98467 62.2114C6.80628 59.9298 8.08664 57.8408 9.74677 56.0732C11.4069 54.3056 13.4116 52.8969 15.6372 51.9339C17.8628 50.971 20.2621 50.4742 22.687 50.4744V50.4744C27.2228 50.4741 31.5867 52.2098 34.8832 55.3253C38.1798 58.4408 40.1589 62.6998 40.4146 67.2284L42.2255 99.3749H9.36073C8.68116 99.3719 8.02814 99.1107 7.5339 98.6443C7.03967 98.1779 6.74118 97.5411 6.69887 96.8628V96.8628Z" fill="#407BFF"/>
<path opacity="0.1" d="M6.6376 95.8655L4.96969 69.3388C4.81763 66.9186 5.16306 64.4929 5.98467 62.2114C6.80628 59.9298 8.08664 57.8408 9.74677 56.0732C11.4069 54.3056 13.4116 52.8969 15.6372 51.9339C17.8628 50.971 20.2621 50.4742 22.687 50.4744V50.4744C27.2228 50.4741 31.5867 52.2098 34.8832 55.3253C38.1798 58.4408 40.1589 62.6998 40.4146 67.2284L42.2255 99.3749H10.3819C9.42823 99.3768 8.50979 99.0147 7.81398 98.3625C7.11816 97.7104 6.69742 96.8173 6.6376 95.8655Z" fill="black"/>
<path d="M12.0294 99.3749L10.1436 69.3388C9.99156 66.9183 10.3371 64.4924 11.1589 62.2106C11.9807 59.9288 13.2614 57.8396 14.9219 56.072C16.5824 54.3043 18.5875 52.8956 20.8135 51.9329C23.0395 50.9702 25.4391 50.4738 27.8644 50.4744V50.4744C32.3996 50.475 36.7626 52.2111 40.0584 55.3265C43.3542 58.4419 45.3329 62.7004 45.5885 67.2284L47.4028 99.3749H12.0294Z" fill="#407BFF"/>
<path d="M11.4644 104.546H11.0117C10.8892 104.538 10.7733 104.487 10.6844 104.402C10.5954 104.318 10.539 104.205 10.5249 104.083L9.84412 99.375H12.6047L11.9239 104.083C11.9121 104.201 11.86 104.311 11.7763 104.396C11.6926 104.48 11.5825 104.533 11.4644 104.546V104.546Z" fill="#407BFF"/>
<path opacity="0.7" d="M11.4644 104.546H11.0117C10.8892 104.538 10.7733 104.487 10.6844 104.402C10.5954 104.318 10.539 104.205 10.5249 104.083L9.84412 99.375H12.6047L11.9239 104.083C11.9121 104.201 11.86 104.311 11.7763 104.396C11.6926 104.48 11.5825 104.533 11.4644 104.546V104.546Z" fill="white"/>
<path d="M55.9364 104.546H55.5246C55.4084 104.533 55.3005 104.479 55.2201 104.395C55.1397 104.31 55.092 104.199 55.0854 104.083L54.4796 99.375H56.9814L56.3755 104.083C56.369 104.199 56.3212 104.31 56.2408 104.395C56.1604 104.479 56.0526 104.533 55.9364 104.546V104.546Z" fill="#407BFF"/>
<path opacity="0.5" d="M55.9364 104.546H55.5246C55.4084 104.533 55.3005 104.479 55.2201 104.395C55.1397 104.31 55.092 104.199 55.0854 104.083L54.4796 99.375H56.9814L56.3755 104.083C56.369 104.199 56.3212 104.31 56.2408 104.395C56.1604 104.479 56.0526 104.533 55.9364 104.546V104.546Z" fill="white"/>
<path d="M43.1343 104.546H42.7191C42.6029 104.533 42.4951 104.479 42.4146 104.395C42.3342 104.31 42.2865 104.199 42.28 104.083L41.6707 99.375H44.1759L43.57 104.083C43.5629 104.199 43.5155 104.308 43.4359 104.393C43.3563 104.477 43.2496 104.531 43.1343 104.546Z" fill="#407BFF"/>
<path opacity="0.7" d="M43.1343 104.546H42.7191C42.6029 104.533 42.4951 104.479 42.4146 104.395C42.3342 104.31 42.2865 104.199 42.28 104.083L41.6707 99.375H44.1759L43.57 104.083C43.5629 104.199 43.5155 104.308 43.4359 104.393C43.3563 104.477 43.2496 104.531 43.1343 104.546Z" fill="white"/>
<path d="M25.2502 104.546H24.7975C24.6748 104.538 24.5586 104.488 24.4695 104.403C24.3804 104.318 24.3242 104.205 24.3107 104.083L23.6299 99.375H26.3905L25.7097 104.083C25.6979 104.201 25.6458 104.311 25.5621 104.396C25.4784 104.48 25.3683 104.533 25.2502 104.546V104.546Z" fill="#407BFF"/>
<path opacity="0.5" d="M25.2502 104.546H24.7975C24.6748 104.538 24.5586 104.488 24.4695 104.403C24.3804 104.318 24.3242 104.205 24.3107 104.083L23.6299 99.375H26.3905L25.7097 104.083C25.6979 104.201 25.6458 104.311 25.5621 104.396C25.4784 104.48 25.3683 104.533 25.2502 104.546V104.546Z" fill="white"/>
<path d="M40.2376 88.0298H52.3419L53.1418 76.3714L53.312 73.8661L53.3937 72.7122C53.4147 72.4095 53.4533 72.1083 53.5094 71.8102C53.5094 71.7455 53.5401 71.6774 53.5537 71.6127C53.5609 71.5627 53.5735 71.5137 53.5911 71.4664C53.9174 70.2781 54.5528 69.1975 55.4327 68.3348C56.4469 67.3323 57.7881 66.7282 59.211 66.6328H47.8249C47.699 66.6328 47.5764 66.6328 47.4505 66.6328C45.906 66.6405 44.4256 67.2512 43.325 68.3348C42.4451 69.1975 41.8097 70.2781 41.4834 71.4664C41.4658 71.5137 41.4532 71.5627 41.446 71.6127C41.366 71.9748 41.3126 72.3423 41.286 72.7122L41.2077 73.8661L40.2376 88.0298Z" fill="#407BFF"/>
<path opacity="0.1" d="M40.2376 88.0298H52.3419L53.1418 76.3714L53.312 73.8661L53.3937 72.7122C53.4147 72.4095 53.4533 72.1083 53.5094 71.8102C53.5094 71.7455 53.5401 71.6774 53.5537 71.6127C53.5609 71.5627 53.5735 71.5137 53.5911 71.4664C53.9174 70.2781 54.5528 69.1975 55.4327 68.3348C56.4469 67.3323 57.7881 66.7282 59.211 66.6328H47.8249C47.699 66.6328 47.5764 66.6328 47.4505 66.6328C45.906 66.6405 44.4256 67.2512 43.325 68.3348C42.4451 69.1975 41.8097 70.2781 41.4834 71.4664C41.4658 71.5137 41.4532 71.5627 41.446 71.6127C41.366 71.9748 41.3126 72.3423 41.286 72.7122L41.2077 73.8661L40.2376 88.0298Z" fill="black"/>
<g opacity="0.1">
<path opacity="0.1" d="M30.6454 81.8176H25.7812C24.6001 81.8176 23.6436 82.5665 23.6436 83.4889V86.3652C23.6436 87.2877 24.6001 88.0366 25.7812 88.0366H30.6454V81.8176Z" fill="black"/>
</g>
<path d="M50.4936 81.8142H29.083C28.0641 81.8142 27.2381 82.6402 27.2381 83.6591V86.1882C27.2381 87.2072 28.0641 88.0332 29.083 88.0332H50.4936C51.5125 88.0332 52.3385 87.2072 52.3385 86.1882V83.6591C52.3385 82.6402 51.5125 81.8142 50.4936 81.8142Z" fill="#407BFF"/>
<path d="M1.08361e-05 73.5018C-0.00287296 75.1293 0.56992 76.7054 1.61707 77.9512C2.66423 79.1971 4.11826 80.0325 5.72198 80.3096L6.97802 96.8832C7.08695 98.2925 8.10812 99.3749 9.33353 99.3749H22.6871C21.4616 99.3749 20.4405 98.2925 20.3316 96.8832L19.6508 88.0331L19.0653 80.3028C18.0176 80.1195 17.0266 79.6962 16.1697 79.0662C15.3129 78.4361 14.6135 77.6162 14.1262 76.6708C14.0616 76.5483 14.0037 76.4224 13.9492 76.2964C13.5543 75.4178 13.3512 74.4651 13.3535 73.5018C13.3537 73.0283 13.4027 72.556 13.4999 72.0926C13.5374 71.9088 13.585 71.725 13.6327 71.548C13.8769 70.7362 14.2655 69.9752 14.7798 69.3014V69.3014C15.416 68.4756 16.2305 67.8042 17.1625 67.3373C18.1131 66.8594 19.1621 66.61 20.226 66.6089H6.89633C6.20382 66.6085 5.51523 66.7129 4.85398 66.9186C3.49218 67.3387 2.29444 68.1713 1.42625 69.3014V69.3014C0.500069 70.5056 -0.00142673 71.9826 1.08361e-05 73.5018Z" fill="#407BFF"/>
<path opacity="0.1" d="M1.08361e-05 73.5018C-0.00287296 75.1293 0.56992 76.7054 1.61707 77.9512C2.66423 79.1971 4.11826 80.0325 5.72198 80.3096L6.97802 96.8832C7.08695 98.2925 8.10812 99.3749 9.33353 99.3749H22.6871C21.4616 99.3749 20.4405 98.2925 20.3316 96.8832L19.6508 88.0331L19.0653 80.3028C18.0176 80.1195 17.0266 79.6962 16.1697 79.0662C15.3129 78.4361 14.6135 77.6162 14.1262 76.6708C14.0616 76.5483 14.0037 76.4224 13.9492 76.2964C13.5543 75.4178 13.3512 74.4651 13.3535 73.5018C13.3537 73.0283 13.4027 72.556 13.4999 72.0926C13.5374 71.9088 13.585 71.725 13.6327 71.548C13.8769 70.7362 14.2655 69.9752 14.7798 69.3014V69.3014C15.416 68.4756 16.2305 67.8042 17.1625 67.3373C18.1131 66.8594 19.1621 66.61 20.226 66.6089H6.89633C6.20382 66.6085 5.51523 66.7129 4.85398 66.9186C3.49218 67.3387 2.29444 68.1713 1.42625 69.3014V69.3014C0.500069 70.5056 -0.00142673 71.9826 1.08361e-05 73.5018Z" fill="black"/>
<path d="M13.3501 73.5018C13.3501 76.9058 15.5933 79.7446 18.5377 80.3097L19.6746 96.8969C19.7733 98.3095 20.6958 99.3886 21.8123 99.3886H57.4648C58.5745 99.3886 59.5071 98.3095 59.6024 96.8969L60.7427 80.2858C63.6259 79.6799 65.8078 76.8819 65.8078 73.5155C65.8156 72.1038 65.4161 70.7198 64.6572 69.5295C64.0806 68.6222 63.2876 67.8724 62.3494 67.3476C61.4963 66.8708 60.5355 66.62 59.5582 66.6191C58.0136 66.6261 56.5329 67.2369 55.4327 68.3211C54.5522 69.184 53.9157 70.2644 53.5877 71.4527C53.5728 71.5006 53.5614 71.5495 53.5537 71.5991C53.4721 71.9609 53.4186 72.3284 53.3937 72.6985L53.312 73.8524L52.3419 88.0263H26.9351L25.8833 72.7087C25.7302 70.5438 24.6783 68.7398 23.2147 67.8854C22.2881 67.1479 21.1591 66.7098 19.9775 66.6294C19.8516 66.6294 19.7291 66.6294 19.6031 66.6294C18.6526 66.6241 17.7162 66.8582 16.88 67.3101C16.8526 67.3198 16.8264 67.3323 16.8017 67.3476C15.9406 67.8297 15.2003 68.5013 14.6368 69.3116C13.7911 70.5447 13.3422 72.0066 13.3501 73.5018V73.5018Z" fill="#407BFF"/>
<path opacity="0.1" d="M27.5206 99.3749H57.475C58.5847 99.3749 59.5173 98.2959 59.6126 96.8832L60.7529 80.2722C63.6361 79.6663 65.818 76.8683 65.818 73.5018C65.8258 72.0901 65.4263 70.7062 64.6674 69.5158C64.0908 68.6085 63.2978 67.8588 62.3596 67.3339C61.5065 66.8571 60.5457 66.6064 59.5684 66.6055C58.0238 66.6124 56.5431 67.2233 55.4428 68.3074C54.5624 69.1703 53.9259 70.2507 53.5979 71.439C53.583 71.4869 53.5716 71.5358 53.5639 71.5854C53.4823 71.9472 53.4288 72.3148 53.4039 72.6849L53.3222 73.8388L52.3521 88.0126H26.9351L27.5206 99.3749Z" fill="white"/>
<path d="M36.6363 105.233L39.5398 106.036L42.1472 99.2115L39.2437 98.4082L36.6363 105.233Z" fill="#FFC3BD"/>
<path d="M40.8401 105.131C40.611 104.834 40.2798 104.633 39.9108 104.566L36.9324 103.984C36.8629 103.964 36.7882 103.972 36.7246 104.006C36.6609 104.04 36.6133 104.098 36.592 104.168L35.6695 106.891C35.6432 106.965 35.6316 107.043 35.6357 107.122C35.6397 107.2 35.6592 107.277 35.6931 107.348C35.7269 107.419 35.7744 107.482 35.8329 107.535C35.8914 107.587 35.9596 107.627 36.0338 107.653H36.0542C37.1571 108.089 37.9025 107.939 39.6249 108.273C40.6903 108.477 42.9199 109.185 44.4108 109.124C45.9017 109.062 45.8983 107.589 45.272 107.48C43.0594 107.139 41.3575 105.805 40.8401 105.131Z" fill="#263238"/>
<g opacity="0.2">
<path opacity="0.2" d="M42.1472 99.2149L40.8026 102.735L37.8991 101.924L39.2402 98.4082L42.1472 99.2149Z" fill="black"/>
</g>
<path d="M32.4563 73.3079C32.4563 73.3079 49.9387 73.2125 49.3941 79.0673C49.0265 83.0226 47.1271 87.1788 45.6498 91.192C43.5019 97.0093 41.64 102.084 41.64 102.084L37.6574 100.706C37.6574 100.706 41.2349 83.8838 43.6449 82.1614H28.8617C23.9703 82.1614 21.8565 76.79 26.6185 70.5269C29.5289 70.5371 32.4563 73.3079 32.4563 73.3079Z" fill="#407BFF"/>
<path opacity="0.6" d="M32.4563 73.3078C32.4563 73.3078 49.9387 73.2125 49.3941 79.0672C49.663 82.706 41.6366 102.078 41.6366 102.078L37.654 100.699C37.654 100.699 41.2315 83.877 43.6415 82.1546H28.8617C23.9703 82.1546 21.8565 76.7832 26.6185 70.52C29.5289 70.537 32.4563 73.3078 32.4563 73.3078Z" fill="black"/>
<path d="M44.7852 62.6773C42.6339 64.6414 38.4097 59.9916 37.7289 59.4402C36.272 58.2488 31.9899 54.2526 32.2146 52.8638C32.8954 48.7791 39.5942 54.5658 41.5311 58.5552L44.7852 62.6773Z" fill="#263238"/>
<path d="M25.9582 50.3859C24.8792 50.6139 23.7116 50.2259 22.9525 51.0258C22.1935 51.8257 21.8769 52.949 21.768 54.0451C21.6721 55.5764 21.7521 57.1136 22.0063 58.6267C22.2332 60.4716 22.4703 62.3154 22.7177 64.1581C22.8711 65.6758 22.8127 67.2075 22.5441 68.7091V68.7091C22.5157 68.8686 22.5411 69.033 22.6163 69.1766C22.6915 69.3201 22.8121 69.4346 22.9594 69.5022C22.9594 69.5022 31.3296 69.7881 33.7634 69.6962C35.0568 69.6486 34.1684 66.2447 34.5667 64.25C34.6552 63.8075 35.5198 61.9898 35.6491 61.5269C36.2482 59.3313 35.85 57.82 35.3087 55.6143C34.9037 54.011 34.7369 51.6998 33.9199 51.5296C32.4494 51.2266 28.9604 49.7459 25.9582 50.3859Z" fill="#407BFF"/>
<path opacity="0.8" d="M25.9582 50.3859C24.8792 50.6139 23.7116 50.2259 22.9525 51.0258C22.1935 51.8257 21.8769 52.949 21.768 54.0451C21.6721 55.5764 21.7521 57.1136 22.0063 58.6267C22.2332 60.4716 22.4703 62.3154 22.7177 64.1581C22.8711 65.6758 22.8127 67.2075 22.5441 68.7091V68.7091C22.5157 68.8686 22.5411 69.033 22.6163 69.1766C22.6915 69.3201 22.8121 69.4346 22.9594 69.5022C22.9594 69.5022 31.3296 69.7881 33.7634 69.6962C35.0568 69.6486 34.1684 66.2447 34.5667 64.25C34.6552 63.8075 35.5198 61.9898 35.6491 61.5269C36.2482 59.3313 35.85 57.82 35.3087 55.6143C34.9037 54.011 34.7369 51.6998 33.9199 51.5296C32.4494 51.2266 28.9604 49.7459 25.9582 50.3859Z" fill="white"/>
<path d="M24.7634 51.9584C24.6511 51.7882 21.6999 49.3102 21.1723 52.1729C20.4268 56.1589 21.9688 60.0802 21.9688 60.0802C21.9688 60.0802 22.3092 64.3929 23.5755 64.8252C24.8417 65.2575 26.0195 65.363 26.4415 64.6244C26.7145 64.0485 26.8585 63.4201 26.8636 62.7829C26.8636 62.7829 26.7207 54.9266 24.7634 51.9584Z" fill="#263238"/>
<path d="M26.8024 44.9158C27.1053 46.7505 27.3606 50.1033 26.0501 51.2845C26.0501 51.2845 29.2532 52.9626 31.3568 55.89C31.8239 55.5414 32.1693 55.0545 32.3441 54.4985C32.5188 53.9425 32.514 53.3455 32.3303 52.7924C32.2249 52.4434 32.0499 52.1193 31.8159 51.8397C31.5819 51.5601 31.2937 51.3307 30.9688 51.1653C29.7263 50.4846 29.8455 49.1979 30.1859 47.9929L26.8024 44.9158Z" fill="#E8BFBF"/>
<path opacity="0.2" d="M27.2211 48.0305L28.4158 48.49C28.9274 48.6878 29.4747 48.7759 30.0225 48.7487C29.9373 49.1229 29.9373 49.5115 30.0225 49.8856C29.5941 50.0028 29.141 49.9931 28.718 49.8578C28.2951 49.7224 27.9205 49.4672 27.6397 49.1232C27.4467 48.7818 27.3055 48.4135 27.2211 48.0305V48.0305Z" fill="black"/>
<path d="M56.8793 99.3647H60.1334L56.7261 91.2056L54.5204 94.9499L56.8793 99.3647Z" fill="#FFC3BD"/>
<path d="M59.8646 98.5919L56.0488 97.7239C55.9834 97.7075 55.9142 97.7162 55.855 97.7484C55.7957 97.7805 55.7507 97.8338 55.7288 97.8975L54.6634 100.832C54.6421 100.906 54.6356 100.983 54.6442 101.06C54.6529 101.136 54.6765 101.21 54.7138 101.278C54.7511 101.345 54.8014 101.404 54.8616 101.452C54.9219 101.5 54.991 101.536 55.0651 101.557C56.4028 101.836 57.0597 101.897 58.7379 102.282C59.759 102.517 62.3869 103.204 63.8131 103.528C65.2393 103.851 65.6138 102.455 65.0453 102.19C62.4992 101.012 61.1206 99.8854 60.382 98.9255C60.253 98.7582 60.0702 98.6403 59.8646 98.5919V98.5919Z" fill="#263238"/>
<g opacity="0.2">
<path opacity="0.2" d="M56.7261 91.2056L58.1762 94.681L55.2488 96.3148L54.5204 94.9533L56.7261 91.2056Z" fill="black"/>
</g>
<path d="M22.4794 69.5397L22.139 70.6494C22.0948 70.7345 22.1935 70.823 22.3365 70.8298L34.9309 71.2111C35.0466 71.2111 35.1385 71.1634 35.1488 71.0919L35.2951 69.9754C35.2951 69.9006 35.2066 69.8325 35.0875 69.8257L22.6973 69.4512C22.6563 69.4448 22.6144 69.4497 22.5761 69.4653C22.5377 69.4808 22.5043 69.5066 22.4794 69.5397V69.5397Z" fill="#263238"/>
<path d="M38.2327 78.645C34.0902 80.4117 29.597 82.1749 27.153 82.1749C22.2582 82.1749 17.9114 78.6416 22.5441 70.6016C25.4578 70.6016 30.5195 70.6833 30.5195 70.6833C30.5195 70.6833 40.0504 67.9602 46.9876 68.7635C48.6314 68.9554 50.1722 69.6632 51.3886 70.7855C52.605 71.9077 53.4345 73.3866 53.7579 75.0097C55.5144 83.8598 58.2205 93.4316 58.2205 93.4316L54.7383 95.8143C54.7383 95.8143 49.309 84.401 46.1842 75.3501C44.5299 75.8708 41.4903 77.2562 38.2327 78.645Z" fill="#407BFF"/>
<path opacity="0.5" d="M53.7579 75.0098C53.4358 73.3855 52.6069 71.9051 51.3903 70.7815C50.1738 69.658 48.6324 68.9491 46.9876 68.7568C40.064 67.9671 30.5195 70.6766 30.5195 70.6766C30.5195 70.6766 25.4579 70.5847 22.5441 70.5949C17.8365 78.6009 22.2582 82.1682 27.153 82.1682C29.597 82.1682 34.0902 80.405 38.2327 78.6384C41.4903 77.2496 44.53 75.8642 46.1843 75.3332C49.309 84.3944 54.7383 95.8111 54.7383 95.8111L58.2205 93.4283C58.2205 93.4283 55.5144 83.86 53.7579 75.0098Z" fill="black"/>
<path d="M49.3941 79.0944C49.2835 80.2315 49.113 81.3621 48.8836 82.4813C48.8665 82.4439 48.8529 82.4098 48.8393 82.3724C48.8257 82.3349 48.8393 82.3553 48.8393 82.3451C48.8281 82.3075 48.8133 82.271 48.7951 82.2362C47.8692 79.9352 46.9638 77.5763 46.1979 75.3535H46.2217C48.2028 76.1943 49.5541 77.3925 49.3941 79.0944Z" fill="#407BFF"/>
<path opacity="0.6" d="M49.3941 79.0944C49.2835 80.2315 49.113 81.3621 48.8836 82.4813C48.8665 82.4439 48.8529 82.4098 48.8393 82.3724C48.8257 82.3349 48.8393 82.3553 48.8393 82.3451C48.8281 82.3075 48.8133 82.271 48.7951 82.2362C47.8692 79.9352 46.9638 77.5763 46.1979 75.3535H46.2217C48.2028 76.1943 49.5541 77.3925 49.3941 79.0944Z" fill="black"/>
<path d="M24.5694 43.1527C25.5906 46.029 25.965 47.268 27.878 48.347C30.7611 49.9741 34.0629 48.0815 33.9199 44.9431C33.7906 42.1349 32.1397 37.9004 28.94 37.56C28.2341 37.4806 27.5196 37.5832 26.8646 37.8579C26.2095 38.1326 25.6356 38.5704 25.1975 39.1296C24.7594 39.6888 24.4718 40.3508 24.3618 41.0526C24.2519 41.7544 24.3233 42.4727 24.5694 43.139V43.1527Z" fill="#E8BFBF"/>
<path d="M29.7399 42.7782C29.8114 43.0266 29.9918 43.173 30.1484 43.1186C30.305 43.0641 30.3662 42.8462 30.305 42.6046C30.2437 42.3629 30.0565 42.2097 29.8965 42.2642C29.7365 42.3186 29.6718 42.5399 29.7399 42.7782Z" fill="#263238"/>
<path d="M32.412 41.9339C32.4835 42.1858 32.6639 42.3322 32.8205 42.2743C32.9771 42.2164 33.0384 42.002 32.9771 41.7603C32.9158 41.5186 32.7252 41.3655 32.572 41.4199C32.4189 41.4744 32.344 41.6991 32.412 41.9339Z" fill="#263238"/>
<path d="M32.5073 41.4573L33.0315 41.1169C33.0315 41.1169 32.8647 41.6514 32.5073 41.4573Z" fill="#263238"/>
<path d="M31.4555 42.4785C31.8238 42.962 32.2567 43.3927 32.7422 43.7584C32.6447 43.8789 32.5219 43.9764 32.3825 44.0441C32.243 44.1117 32.0904 44.1478 31.9355 44.1498L31.4555 42.4785Z" fill="#ED847E"/>
<path d="M22.6904 45.0554C22.8995 45.5733 23.058 46.1102 23.1636 46.6587C23.1926 47.2103 23.0151 47.7529 22.6659 48.1808C22.3167 48.6087 21.8206 48.8912 21.2744 48.9733C21.7501 49.1001 22.2549 49.0585 22.7034 48.8556C23.1519 48.6528 23.5165 48.3011 23.7354 47.8603C23.4752 48.5532 22.9602 49.1206 22.2956 49.4465C22.7706 49.4517 23.2404 49.3472 23.6684 49.1411C24.0965 48.9351 24.4712 48.633 24.7634 48.2585C24.6034 48.6738 24.423 49.0857 24.2801 49.5009C25.0883 49.0114 25.752 48.316 26.2033 47.4858C26.3837 47.1454 26.5198 46.7029 26.2816 46.4034C26.0433 46.1038 25.6655 46.1243 25.3183 46.1175C24.9711 46.1106 24.5524 46.029 24.4264 45.7056C24.3005 45.3822 24.532 45.0588 24.7838 44.8376C25.0357 44.6163 25.3387 44.4121 25.4306 44.0887C25.4742 43.8547 25.4578 43.6135 25.3829 43.3875C25.2264 42.7612 25.072 42.1338 24.92 41.5052C24.8787 41.2833 24.7992 41.0702 24.6851 40.8754C24.0043 39.8543 23.2453 41.352 22.9832 41.8592C22.4926 42.8514 22.3882 43.9906 22.6904 45.0554V45.0554Z" fill="#263238"/>
<path d="M24.3686 45.9711C24.7541 46.4722 25.3216 46.8011 25.948 46.8867C26.7819 46.9888 27.0747 46.2059 26.7411 45.4945C26.4381 44.841 25.6416 44.007 24.8553 44.2283C24.069 44.4495 23.8988 45.3447 24.3686 45.9711Z" fill="#E8BFBF"/>
<path d="M29.7842 40.7223C29.7786 40.754 29.7637 40.7834 29.7412 40.8064C29.7187 40.8295 29.6898 40.8453 29.6582 40.8516C28.9774 40.981 28.5826 41.8013 28.5826 41.8081C28.5655 41.8453 28.5346 41.8742 28.4964 41.8889C28.4582 41.9035 28.4159 41.9026 28.3784 41.8864C28.3421 41.8694 28.3139 41.8388 28.2999 41.8013C28.2859 41.7638 28.2872 41.7222 28.3035 41.6856C28.3341 41.655 28.7562 40.7121 29.6004 40.5487C29.6399 40.5426 29.6803 40.5519 29.7133 40.5747C29.7462 40.5975 29.7691 40.632 29.7774 40.6712C29.7846 40.6872 29.787 40.705 29.7842 40.7223V40.7223Z" fill="#263238"/>
<path d="M31.6019 40.0413C31.5791 40.0378 31.5559 40.0389 31.5337 40.0448C31.5114 40.0507 31.4906 40.0611 31.4725 40.0753C31.4351 40.1162 31.3092 40.1877 31.3806 40.2251C31.7959 40.4362 32.3712 40.7834 32.8137 40.7119C32.8886 40.7119 33.0656 40.6336 33.0281 40.5791C33.0025 40.5517 32.9703 40.5313 32.9345 40.52C32.8987 40.5086 32.8606 40.5067 32.8239 40.5145C32.4835 40.5621 32.0036 40.2319 31.6768 40.0617C31.6528 40.0518 31.6276 40.0449 31.6019 40.0413Z" fill="#263238"/>
<path d="M29.8318 42.2982L30.3595 41.9578C30.3595 41.9578 30.1927 42.499 29.8318 42.2982Z" fill="#263238"/>
<path d="M29.7842 36.3006C28.6235 36.0895 28.4737 36.0112 27.2959 36.0861C26.1064 36.1234 24.9561 36.521 23.9976 37.2264C23.102 37.9666 22.4703 38.9769 22.1969 40.1061C21.9293 41.2313 21.8992 42.3998 22.1084 43.5373C22.146 44.0806 22.3808 44.5915 22.7687 44.9737C22.8083 44.362 22.9121 43.7562 23.0785 43.1662C23.2521 42.5707 23.6095 42.0453 24.0997 41.6651C24.316 41.5481 24.5024 41.3827 24.6443 41.1818C24.718 40.9831 24.7593 40.774 24.7668 40.5623C24.8736 40.0857 25.1585 39.6679 25.5634 39.3947C25.9654 39.1279 26.3958 38.9064 26.8466 38.7344C28.2797 38.1182 29.8421 37.7642 31.1628 36.9337C30.7307 36.6675 30.2677 36.4549 29.7842 36.3006V36.3006Z" fill="#263238"/>
<path d="M23.8444 40.855C24.1561 41.2335 24.5827 41.5 25.0596 41.614C25.6246 41.7434 27.0373 41.7093 27.1224 41.563C27.2074 41.4166 26.7037 39.8304 26.1318 39.7351C26.5263 40.1159 26.9974 40.4083 27.5138 40.5929C28.098 40.7097 28.6996 40.7097 29.2838 40.5929C29.5834 40.5248 28.9128 39.2858 28.426 38.9318C29.8931 39.2381 31.4453 39.5887 32.5107 40.6337C33.5762 41.6787 34.0357 43.333 33.9812 44.875C34.2309 44.6739 34.4314 44.4186 34.5677 44.1284C34.7039 43.8382 34.7723 43.5208 34.7675 43.2003C35.0245 43.9976 35.1187 44.8384 35.0444 45.6728C34.9702 46.5072 34.729 47.3182 34.3352 48.0576C35.8942 46.7778 36.4763 44.5414 36.0678 42.5671C35.6594 40.5929 34.3659 38.8739 32.7967 37.611C31.4351 36.532 29.8148 35.7253 28.0891 35.6844C25.8255 35.6163 21.6318 38.1897 23.8444 40.855Z" fill="#263238"/>
<path d="M25.6791 49.957C25.6791 49.8446 25.7063 49.6949 25.72 49.5383C25.7497 49.1788 25.645 48.8211 25.4262 48.5344C25.2074 48.2477 24.89 48.0523 24.5354 47.9861C24.4301 47.9673 24.3318 47.9208 24.2504 47.8514C24.1691 47.782 24.1077 47.6922 24.0725 47.5913C23.8104 46.8288 23.7083 46.5973 23.4564 45.8485C22.7756 45.6817 21.9552 45.937 21.2438 46.0118C21.0466 46.8661 21.0326 47.7524 21.203 48.6124C21.2303 48.8048 21.3052 48.9873 21.4208 49.1434C22.0668 49.6727 22.7813 50.1124 23.5449 50.4505C24.1576 50.6378 25.0188 50.0148 25.6791 49.957Z" fill="#E8BFBF"/>
<path d="M23.6163 50.4677C23.6163 50.4677 21.7408 62.5686 23.6742 64.4237C24.8077 65.5062 25.788 64.9071 26.3973 64.2297C26.6206 63.9773 26.7887 63.6809 26.8907 63.3597C26.9927 63.0384 27.0264 62.6994 26.9896 62.3644L25.6723 49.9673C25.6723 49.9673 24.3788 49.2014 23.6163 50.4677Z" fill="#E8BFBF"/>
<path d="M43.7675 61.394C44.5376 60.7219 45.0899 59.8355 45.3537 58.8479C45.4139 58.4996 45.4367 58.1459 45.4218 57.7927C45.4047 55.6006 44.7852 51.5806 44.7852 51.5806L43.005 50.9917C43.005 50.9917 42.4501 54.0552 42.3242 55.7299C42.3004 56.0703 42.2629 56.4482 42.2221 56.86C42.1438 57.6089 42.0485 58.4326 41.9634 59.1168L43.7675 61.394Z" fill="#E8BFBF"/>
<path d="M44.7852 62.6774C45.3333 62.1771 45.4252 61.5712 45.7077 60.2947C45.9766 59.0761 45.6737 57.5716 45.4218 57.7996C45.3903 57.8283 45.3668 57.8647 45.3537 57.9052C44.9214 58.9263 43.2399 58.0311 42.7633 57.5205C42.5581 57.3254 42.3775 57.1059 42.2255 56.867C42.163 56.7758 42.1296 56.6678 42.1296 56.5572C42.1296 56.4466 42.163 56.3387 42.2255 56.2475C41.7081 56.033 41.2928 58.0685 41.5447 58.5689L41.6741 58.9468C41.8791 59.5598 42.1953 60.1298 42.6067 60.6283L43.5428 61.755L44.7852 62.6774Z" fill="#263238"/>
<path d="M42.9573 51.2472L42.7463 48.136C43.2968 48.398 43.8656 48.6198 44.4482 48.7997C45.3128 49.0959 46.4906 48.5751 46.2183 49.1401C45.7841 49.9808 45.2999 50.7947 44.7682 51.5773L42.9573 51.2472Z" fill="#E8BFBF"/>
<path d="M42.7463 48.1358L44.0806 45.0212L45.8234 46.0867C46.3034 47.1283 46.2455 49.1502 46.2455 49.1502C46.2455 49.1502 43.8219 49.2455 42.7463 48.1358Z" fill="#E8BFBF"/>
<path d="M31.2513 45.7361C31.2955 45.9573 31.4555 46.1139 31.5917 46.0765C31.7278 46.039 31.8129 45.8416 31.7653 45.6203C31.7176 45.3991 31.561 45.2425 31.4249 45.28C31.2887 45.3174 31.2036 45.5284 31.2513 45.7361Z" fill="#263238"/>
<path d="M26.9351 88.0296L25.8833 72.712C25.7301 70.5471 24.6783 68.7431 23.2146 67.8887C22.2881 67.1512 21.159 66.7131 19.9775 66.6327C19.8516 66.6327 19.729 66.6327 19.6031 66.6327C18.6526 66.6274 17.7161 66.8615 16.88 67.3134C16.8526 67.3231 16.8264 67.3357 16.8017 67.3509C15.9405 67.833 15.2003 68.5046 14.6368 69.3149C13.7867 70.5501 13.3352 72.0159 13.3433 73.5153C13.3433 76.9193 15.5865 79.7581 18.5309 80.3232L19.6678 96.9104C19.7665 98.323 20.6889 99.4021 21.8054 99.4021H27.5138L26.9351 88.0296Z" fill="#407BFF"/>
<path opacity="0.1" d="M26.9351 88.0296L25.8833 72.712C25.7301 70.5471 24.6783 68.7431 23.2146 67.8887C22.2881 67.1512 21.159 66.7131 19.9775 66.6327C19.8516 66.6327 19.729 66.6327 19.6031 66.6327C18.6526 66.6274 17.7161 66.8615 16.88 67.3134C16.8526 67.3231 16.8264 67.3357 16.8017 67.3509C15.9405 67.833 15.2003 68.5046 14.6368 69.3149C13.7867 70.5501 13.3352 72.0159 13.3433 73.5153C13.3433 76.9193 15.5865 79.7581 18.5309 80.3232L19.6678 96.9104C19.7665 98.323 20.6889 99.4021 21.8054 99.4021H27.5138L26.9351 88.0296Z" fill="white"/>
<path d="M67.622 116.017C73.9273 116.017 79.0387 114.709 79.0387 113.096C79.0387 111.483 73.9273 110.176 67.622 110.176C61.3168 110.176 56.2053 111.483 56.2053 113.096C56.2053 114.709 61.3168 116.017 67.622 116.017Z" fill="#263238"/>
<path opacity="0.3" d="M67.622 115.043C73.9273 115.043 79.0387 113.953 79.0387 112.609C79.0387 111.265 73.9273 110.176 67.622 110.176C61.3168 110.176 56.2053 111.265 56.2053 112.609C56.2053 113.953 61.3168 115.043 67.622 115.043Z" fill="white"/>
<path d="M68.5649 112.606H66.6791L64.5006 89.1121H70.7434L68.5649 112.606Z" fill="#263238"/>
<path d="M70.7434 89.1121C70.7434 89.7928 69.3478 90.3511 67.622 90.3511C65.8962 90.3511 64.5006 89.7962 64.5006 89.1121C64.5006 88.4279 65.8996 87.873 67.622 87.873C69.3444 87.873 70.7434 88.4279 70.7434 89.1121Z" fill="#263238"/>
<path opacity="0.7" d="M70.7434 89.1121C70.7434 89.7928 69.3478 90.3511 67.622 90.3511C65.8962 90.3511 64.5006 89.7962 64.5006 89.1121C64.5006 88.4279 65.8996 87.873 67.622 87.873C69.3444 87.873 70.7434 88.4279 70.7434 89.1121Z" fill="white"/>
<path opacity="0.7" d="M29.4438 89.4796C29.4523 89.339 29.4889 89.2014 29.5515 89.0752C29.6141 88.9489 29.7013 88.8364 29.808 88.7444C32.446 91.3994 49.183 93.4452 69.4363 93.4452C89.6896 93.4452 106.427 91.4028 109.068 88.7444C109.175 88.8364 109.262 88.9489 109.324 89.0752C109.387 89.2014 109.424 89.339 109.432 89.4796C109.432 92.4785 91.5243 94.9259 69.4363 94.9259C47.3483 94.9259 29.4438 92.4785 29.4438 89.4796Z" fill="white"/>
<path opacity="0.7" d="M29.8216 90.1571C32.4596 87.5021 49.1966 85.4597 69.4499 85.4597C89.7031 85.4597 106.44 87.5021 109.082 90.1571C106.44 92.8122 89.7031 94.8579 69.4499 94.8579C49.1966 94.8579 32.4596 92.8122 29.8216 90.1571Z" fill="white"/>
<path opacity="0.7" d="M29.4438 89.3742C29.4438 86.372 47.3483 83.928 69.4363 83.928C91.5243 83.928 109.432 86.3584 109.432 89.3742C109.424 89.5145 109.387 89.6516 109.325 89.7774C109.262 89.9031 109.175 90.0149 109.068 90.1061C106.427 87.451 89.6896 85.4087 69.4363 85.4087C49.183 85.4087 32.446 87.451 29.808 90.1061C29.7011 90.0149 29.6137 89.9031 29.5511 89.7774C29.4885 89.6516 29.452 89.5145 29.4438 89.3742Z" fill="white"/>
<path d="M84.8764 86.7292L68.1428 86.4127C68.0977 86.408 68.0539 86.3944 68.0141 86.3727C67.9743 86.3509 67.9393 86.3214 67.9111 86.2858C67.8828 86.2503 67.862 86.2095 67.8498 86.1658C67.8375 86.1221 67.8342 86.0765 67.8398 86.0314V86.0314C67.8361 85.9862 67.8415 85.9406 67.8557 85.8975C67.8699 85.8543 67.8925 85.8145 67.9223 85.7802C67.9522 85.7459 67.9885 85.718 68.0293 85.698C68.0701 85.678 68.1145 85.6664 68.1598 85.6638L84.8934 85.9804C84.9388 85.9846 84.983 85.9979 85.0231 86.0195C85.0633 86.0411 85.0988 86.0705 85.1273 86.1061C85.1559 86.1417 85.1771 86.1826 85.1895 86.2265C85.2019 86.2704 85.2054 86.3164 85.1998 86.3616C85.2035 86.4072 85.198 86.453 85.1836 86.4963C85.1692 86.5397 85.1463 86.5797 85.1161 86.614C85.0859 86.6483 85.0491 86.6762 85.0079 86.696C84.9668 86.7158 84.922 86.7271 84.8764 86.7292Z" fill="#263238"/>
<path opacity="0.2" d="M84.8764 86.7292L68.1428 86.4127C68.0977 86.408 68.0539 86.3944 68.0141 86.3727C67.9743 86.3509 67.9393 86.3214 67.9111 86.2858C67.8828 86.2503 67.862 86.2095 67.8498 86.1658C67.8375 86.1221 67.8342 86.0765 67.8398 86.0314V86.0314C67.8361 85.9862 67.8415 85.9406 67.8557 85.8975C67.8699 85.8543 67.8925 85.8145 67.9223 85.7802C67.9522 85.7459 67.9885 85.718 68.0293 85.698C68.0701 85.678 68.1145 85.6664 68.1598 85.6638L84.8934 85.9804C84.9388 85.9846 84.983 85.9979 85.0231 86.0195C85.0633 86.0411 85.0988 86.0705 85.1273 86.1061C85.1559 86.1417 85.1771 86.1826 85.1895 86.2265C85.2019 86.2704 85.2054 86.3164 85.1998 86.3616C85.2035 86.4072 85.198 86.453 85.1836 86.4963C85.1692 86.5397 85.1463 86.5797 85.1161 86.614C85.0859 86.6483 85.0491 86.6762 85.0079 86.696C84.9668 86.7158 84.922 86.7271 84.8764 86.7292Z" fill="white"/>
<path d="M93.0016 85.5074L85.0024 86.7158C84.915 86.7159 84.8309 86.6824 84.7675 86.6222C84.7041 86.562 84.6664 86.4797 84.662 86.3924C84.648 86.3009 84.6685 86.2075 84.7194 86.1302C84.7704 86.0528 84.8481 85.9971 84.9377 85.9738L92.9369 84.7654C93.0243 84.7653 93.1084 84.7988 93.1718 84.859C93.2351 84.9192 93.2729 85.0015 93.2773 85.0887C93.2912 85.1803 93.2707 85.2737 93.2198 85.351C93.1689 85.4284 93.0911 85.4841 93.0016 85.5074V85.5074Z" fill="#263238"/>
<path d="M92.9301 84.7654H76.0195L68.1599 85.664L84.4373 85.9704L92.9301 84.7654Z" fill="#263238"/>
<path opacity="0.6" d="M92.9301 84.7654H76.0195L68.1599 85.664L84.4373 85.9704L92.9301 84.7654Z" fill="white"/>
<path opacity="0.5" d="M93.0016 85.5074L85.0024 86.7158C84.915 86.7159 84.8309 86.6824 84.7675 86.6222C84.7041 86.562 84.6664 86.4797 84.662 86.3924C84.648 86.3009 84.6685 86.2075 84.7194 86.1302C84.7704 86.0528 84.8481 85.9971 84.9377 85.9738L92.9369 84.7654C93.0243 84.7653 93.1084 84.7988 93.1718 84.859C93.2351 84.9192 93.2729 85.0015 93.2773 85.0887C93.2912 85.1803 93.2707 85.2737 93.2198 85.351C93.1689 85.4284 93.0911 85.4841 93.0016 85.5074V85.5074Z" fill="white"/>
<path d="M84.4373 85.9702L68.8338 85.6774C68.5396 85.64 68.2694 85.4959 68.0743 85.2726C67.8792 85.0493 67.7728 84.7622 67.7752 84.4657L67.3054 75.0436C67.2714 74.3867 67.6969 73.8591 68.2449 73.8693L83.8484 74.1654C84.1432 74.2015 84.4143 74.3451 84.6096 74.5687C84.805 74.7924 84.9109 75.0803 84.907 75.3772L85.3802 84.7958C85.4108 85.4528 84.9887 85.9804 84.4373 85.9702Z" fill="#407BFF"/>
<path opacity="0.2" d="M84.4373 85.9702L68.8338 85.6774C68.5396 85.64 68.2694 85.4959 68.0743 85.2726C67.8792 85.0493 67.7728 84.7622 67.7752 84.4657L67.3054 75.0436C67.2714 74.3867 67.6969 73.8591 68.2449 73.8693L83.8484 74.1654C84.1432 74.2015 84.4143 74.3451 84.6096 74.5687C84.805 74.7924 84.9109 75.0803 84.907 75.3772L85.3802 84.7958C85.4108 85.4528 84.9887 85.9804 84.4373 85.9702Z" fill="white"/>
<path d="M83.9812 85.9226L68.3777 85.6265C68.0829 85.5898 67.8119 85.4461 67.6161 85.2227C67.4203 84.9993 67.3134 84.7117 67.3156 84.4147L66.8459 75.0097C66.8119 74.3527 67.2373 73.8251 67.7888 73.8354L83.3889 74.1281C83.6837 74.1648 83.9547 74.3085 84.1505 74.5319C84.3463 74.7553 84.4532 75.0428 84.4509 75.3399L84.9275 84.7483C84.9547 85.4052 84.5292 85.9328 83.9812 85.9226Z" fill="#407BFF"/>
<path opacity="0.6" d="M83.9812 85.9226L68.3777 85.6265C68.0829 85.5898 67.8119 85.4461 67.6161 85.2227C67.4203 84.9993 67.3134 84.7117 67.3156 84.4147L66.8459 75.0097C66.8119 74.3527 67.2373 73.8251 67.7888 73.8354L83.3889 74.1281C83.6837 74.1648 83.9547 74.3085 84.1505 74.5319C84.3463 74.7553 84.4532 75.0428 84.4509 75.3399L84.9275 84.7483C84.9547 85.4052 84.5292 85.9328 83.9812 85.9226Z" fill="white"/>
<path d="M73.8171 79.7173C73.8629 80.1656 74.0714 80.5816 74.4033 80.8864C74.7351 81.1913 75.1672 81.3639 75.6178 81.3716C75.8297 81.3752 76.0399 81.3338 76.2345 81.2499C76.4292 81.1661 76.6037 81.0418 76.7467 80.8854C76.8896 80.7289 76.9976 80.5439 77.0635 80.3425C77.1295 80.1411 77.1518 79.928 77.1291 79.7173C77.0796 79.2714 76.8697 78.8587 76.5383 78.5562C76.207 78.2537 75.777 78.082 75.3285 78.0732C75.1175 78.0697 74.9083 78.111 74.7144 78.1942C74.5206 78.2774 74.3465 78.4007 74.2038 78.556C74.061 78.7113 73.9527 78.8951 73.8861 79.0953C73.8195 79.2954 73.7959 79.5074 73.8171 79.7173V79.7173Z" fill="white"/>
</svg>
