<svg width="166" height="85" viewBox="0 0 166 85" fill="none" xmlns="http://www.w3.org/2000/svg">
<path d="M1.54498 36.0549L28.735 62.8849L35.101 56.3409V19.3789C35.101 19.3789 22.132 20.1999 12.939 25.9429C3.74597 31.6859 1.54498 36.0549 1.54498 36.0549Z" fill="#BCDAFF"/>
<path d="M69.494 36.0549L42.304 62.8849L35.9379 56.3409V19.3789C35.9379 19.3789 48.9069 20.1999 58.0999 25.9429C67.2929 31.6859 69.494 36.0549 69.494 36.0549Z" fill="#E5F1FF"/>
<path d="M28.299 64.272C28.0139 64.2719 27.7405 64.1586 27.539 63.957L0.314965 36.733C0.113449 36.5314 0.000244141 36.2581 0.000244141 35.973C0.000244141 35.688 0.113449 35.4146 0.314965 35.213L34.215 1.31301C34.4166 1.1115 34.6899 0.998291 34.975 0.998291C35.26 0.998291 35.5334 1.1115 35.735 1.31301L69.635 35.213C69.8362 35.4146 69.9492 35.6877 69.9492 35.9725C69.9492 36.2573 69.8362 36.5305 69.635 36.732L65.992 40.386C65.573 40.806 64.892 40.179 64.47 39.759C64.2652 39.4721 64.1551 39.1285 64.1551 38.776C64.1551 38.4236 64.2652 38.0799 64.47 37.793L66.277 34.9L34.977 4.67001L3.67696 35.97L29.062 61.362C29.3768 62.0668 29.4585 62.8536 29.295 63.608C29.2137 63.8045 29.0759 63.9724 28.8992 64.0906C28.7224 64.2088 28.5146 64.2719 28.302 64.272H28.299Z" fill="#1273EB"/>
<path d="M49.4499 56.469C49.2374 56.4691 49.0297 56.4061 48.8529 56.2881C48.6762 56.1701 48.5384 56.0023 48.4569 55.806C48.2934 55.0517 48.3751 54.2648 48.6899 53.56L51.6989 50.551C52.1001 50.3441 52.545 50.2361 52.9964 50.2361C53.4479 50.2361 53.8927 50.3441 54.2939 50.551C54.4955 50.7526 54.6087 51.026 54.6087 51.3111C54.6087 51.5961 54.4955 51.8695 54.2939 52.071L50.2049 56.154C50.0046 56.3544 49.7333 56.4677 49.4499 56.469V56.469Z" fill="#1273EB"/>
<path d="M41.647 64.2739C41.4343 64.2739 41.2265 64.2108 41.0498 64.0926C40.873 63.9744 40.7353 63.8064 40.654 63.6099C40.4906 62.8555 40.5726 62.0685 40.888 61.3639L43.822 58.4409C44.2232 58.234 44.668 58.126 45.1195 58.126C45.5709 58.126 46.0158 58.234 46.417 58.4409C46.6185 58.6425 46.7317 58.9159 46.7317 59.2009C46.7317 59.486 46.6185 59.7594 46.417 59.9609L42.408 63.9609C42.2065 64.1619 41.9336 64.2749 41.649 64.2749L41.647 64.2739Z" fill="#1273EB"/>
<path d="M57.3389 48.5801C56.9049 48.5801 55.4389 48.3181 55.2719 47.9171C55.1049 47.5161 56.2719 45.9781 56.5799 45.6711L60.6639 41.5871C61.0839 41.1671 61.7639 42.2421 62.1839 42.6621C62.3855 42.8636 62.4987 43.137 62.4987 43.4221C62.4987 43.7071 62.3855 43.9805 62.1839 44.1821L58.0999 48.2661C57.9999 48.3658 57.8813 48.4449 57.7507 48.4988C57.6201 48.5527 57.4802 48.5803 57.3389 48.5801V48.5801Z" fill="#1273EB"/>
<path d="M52.574 76.2339H17.374C17.1655 76.2338 16.9617 76.173 16.7871 76.0591C16.6126 75.9452 16.4749 75.783 16.3909 75.5923C16.3069 75.4016 16.2801 75.1905 16.3139 74.9849C16.3476 74.7792 16.4404 74.5878 16.581 74.4339L34.181 55.1679C34.2842 55.0621 34.4075 54.9781 34.5437 54.9207C34.6799 54.8633 34.8262 54.8337 34.974 54.8337C35.1217 54.8337 35.268 54.8633 35.4042 54.9207C35.5404 54.9781 35.6637 55.0621 35.767 55.1679L53.367 74.4339C53.5075 74.5878 53.6003 74.7792 53.6341 74.9849C53.6678 75.1905 53.641 75.4016 53.557 75.5923C53.473 75.783 53.3353 75.9452 53.1608 76.0591C52.9863 76.173 52.7824 76.2338 52.574 76.2339V76.2339ZM20.889 74.0839H49.059L34.974 58.5659L20.889 74.0839Z" fill="#1273EB"/>
<path d="M34.9729 56.973C34.6882 56.973 34.4151 56.86 34.2135 56.6588C34.012 56.4577 33.8985 56.1848 33.8979 55.9V2.075C33.8979 1.78989 34.0112 1.51646 34.2128 1.31486C34.4144 1.11326 34.6878 1 34.9729 1C35.2581 1 35.5315 1.11326 35.7331 1.31486C35.9347 1.51646 36.048 1.78989 36.048 2.075V55.9C36.0474 56.1848 35.9339 56.4577 35.7324 56.6588C35.5308 56.86 35.2577 56.973 34.9729 56.973V56.973Z" fill="#1273EB"/>
<path d="M61.872 30.049C61.647 30.049 62.503 31.049 62.32 30.922C44.646 18.199 26.375 18.199 8.70098 30.921C8.21898 31.268 7.54798 30.084 7.20098 29.602C7.03453 29.3707 6.96673 29.0828 7.01249 28.8015C7.05824 28.5203 7.2138 28.2687 7.44498 28.102C25.716 14.95 44.234 14.95 62.501 28.102C62.6849 28.2349 62.822 28.4225 62.8928 28.6381C62.9636 28.8536 62.9643 29.086 62.895 29.302C62.751 29.746 63.413 30.046 61.871 30.046L61.872 30.049Z" fill="#1273EB"/>
<path d="M90.7891 73H86.2891V38.875H90.7891V73ZM104.852 38.875L116.008 66.7188L127.164 38.875H133V73H128.5V59.7109L128.922 45.3672L117.719 73H114.273L103.094 45.4375L103.539 59.7109V73H99.0391V38.875H104.852ZM151 57.7891C147.141 56.6797 144.328 55.3203 142.562 53.7109C140.812 52.0859 139.938 50.0859 139.938 47.7109C139.938 45.0234 141.008 42.8047 143.148 41.0547C145.305 39.2891 148.102 38.4062 151.539 38.4062C153.883 38.4062 155.969 38.8594 157.797 39.7656C159.641 40.6719 161.062 41.9219 162.062 43.5156C163.078 45.1094 163.586 46.8516 163.586 48.7422H159.062C159.062 46.6797 158.406 45.0625 157.094 43.8906C155.781 42.7031 153.93 42.1094 151.539 42.1094C149.32 42.1094 147.586 42.6016 146.336 43.5859C145.102 44.5547 144.484 45.9062 144.484 47.6406C144.484 49.0312 145.07 50.2109 146.242 51.1797C147.43 52.1328 149.438 53.0078 152.266 53.8047C155.109 54.6016 157.328 55.4844 158.922 56.4531C160.531 57.4062 161.719 58.5234 162.484 59.8047C163.266 61.0859 163.656 62.5938 163.656 64.3281C163.656 67.0938 162.578 69.3125 160.422 70.9844C158.266 72.6406 155.383 73.4688 151.773 73.4688C149.43 73.4688 147.242 73.0234 145.211 72.1328C143.18 71.2266 141.609 69.9922 140.5 68.4297C139.406 66.8672 138.859 65.0938 138.859 63.1094H143.383C143.383 65.1719 144.141 66.8047 145.656 68.0078C147.188 69.1953 149.227 69.7891 151.773 69.7891C154.148 69.7891 155.969 69.3047 157.234 68.3359C158.5 67.3672 159.133 66.0469 159.133 64.375C159.133 62.7031 158.547 61.4141 157.375 60.5078C156.203 59.5859 154.078 58.6797 151 57.7891Z" fill="#1273EB"/>
</svg>
